<svg xmlns="http://www.w3.org/2000/svg" width="256" height="256" fill="none" viewBox="0 0 256 256">
<!-- SVG created with Arrow, by QuiverAI (https://quiver.ai) -->
  <path d="m143.7 18.72c-10.77-7.93-24.89-12.41-38.16-12.41-32.54 0-52.44 24.57-62.4 52.85 7.04-4.34 13.56-5.74 20.67-5.42 13.03 0.59 19.09 1.91 27.3 1.38 12.13-0.81 23.55-5.36 34.29-12.35-24.69 24.39-45.32 56.29-51.77 106-7.52-1.44-10.49-4.64-19.92-4.64-18.95 0-36.03 16.53-36.03 45.75 0 29.69 23.74 58.79 56.93 58.79 22.14 0 38.54-11.56 50.11-27.04-6.06-10.94-8.1-19.3-8.1-31.79 0-10.8 2.98-22 8.06-31.9-7.92-10-15.6-13.91-24.9-13.71-8.83 0.21-11.97 3.5-19.78 4.68 6.77-45.74 26.43-75.8 58.88-111.4 2.04-2.28 6.02-4.69 6.02-4.4-7.52 40.99 2.4 74.87 26.72 113.8-1.42 0-6.92-2.8-14.44-2.8-19.11 0-35.07 17.43-35.07 45.75 0 29.69 24.09 58.79 56.79 58.79 30.2 0 58.75-26.3 58.75-59.07 0-23.09-12.78-45.47-34.93-45.47-10.01 0-13.95 4.9-22.42 4.78-25.25-32.89-35.59-66.9-29.16-121.3 0.63-2.76-1.13-4.29-3.32-4.29-30.04-2.13-57.58 0.48-83.69 19.3 21.62-17.65 42.57-24.34 72.61-24.05 2.46 0.02 4.06 0.06 6.96 0.06z" fill="#000"/>
  <path d="m120.7 158.8c-6.61-7.54-12.88-10.07-20.4-10.07-9.26 0-13.6 6-24.13 6-8.71 0-13.35-5.39-22.94-5.39-16.97 0-29.83 17.32-29.83 40.54 0 10.77 2.29 15.11 3.39 16.25 11.2 1.93 20.18 3.62 29.96 2.97l43.36-23.72 20.59-26.58z" fill="url(#paint0_radial_2001_1211)"/>
  <path d="m128.2 191.1c0-22.74 11.75-40.78 30.06-40.78 7.99 0 12.65 4.85 21.69 4.85 8.81 0 13.8-5.69 22.61-5.69 8.37 0 14.7 5.35 19.39 11.32-4.69 17.9-16.79 32.17-34.02 40.93l-16.18 5.83-41.99-4.62c-0.95-3.96-1.56-8.12-1.56-11.84z" fill="url(#paint1_radial_2001_1211)"/>
  <path d="m31.18 185.1c-0.57-11.31 4.11-24.37 15.89-29.4 3.12-1.34 5.04-1.53 5.99 0.22 1.36 2.67-0.95 5.07-4.89 7.33-9.04 5.04-12.88 13.8-16.99 21.85z" fill="#fff" opacity=".2"/>
  <path d="m135 185.1c-1.23-9.96 2.11-21.36 13.88-28.61 3.84-2.2 6.13-2.55 7.69-0.79 1.92 2.4 0 5.07-4.67 7.55-9.04 5.04-12.29 12.29-16.9 21.85z" fill="#fff" opacity=".2"/>
  <path d="m57.79 171.6v48h8.83v-15.4l5.62-5.39 15.28 20.79h10.19l-18.95-27.4 18.2-20.6h-10.74l-19.6 22.09v-22.09h-8.83z" fill="url(#paint2_linear_2001_1211)"/>
  <path d="m176.5 171.6v48h9.82v-48h-9.82z" fill="url(#paint3_linear_2001_1211)"/>
  <defs>
    <radialGradient id="paint0_radial_2001_1211" cx="0" cy="0" r="1" gradientTransform="translate(54.96 163.4) scale(51.32 44.73)" gradientUnits="userSpaceOnUse">
      <stop stop-color="#5F6062" offset="0"/>
      <stop stop-color="#0A0A0A" offset="1"/>
    </radialGradient>
    <radialGradient id="paint1_radial_2001_1211" cx="0" cy="0" r="1" gradientTransform="translate(161.4 159.9) scale(52.9 46.12)" gradientUnits="userSpaceOnUse">
      <stop stop-color="#5F6062" offset="0"/>
      <stop stop-color="#0A0A0A" offset="1"/>
    </radialGradient>
    <linearGradient id="paint2_linear_2001_1211" x1="77.75" x2="77.75" y1="171.6" y2="219.6" gradientUnits="userSpaceOnUse">
      <stop stop-color="#F664D1" offset="0"/>
      <stop stop-color="#D92D96" offset="1"/>
    </linearGradient>
    <linearGradient id="paint3_linear_2001_1211" x1="181.4" x2="181.4" y1="171.6" y2="219.6" gradientUnits="userSpaceOnUse">
      <stop stop-color="#F664D1" offset="0"/>
      <stop stop-color="#D92D96" offset="1"/>
    </linearGradient>
  </defs>
</svg>